<?xml version="1.0" standalone="no"?>
<!DOCTYPE svg PUBLIC "-//W3C//DTD SVG 20010904//EN"
 "http://www.w3.org/TR/2001/REC-SVG-20010904/DTD/svg10.dtd">
<svg version="1.0" xmlns="http://www.w3.org/2000/svg"
 width="354.000000pt" height="354.000000pt" viewBox="0 0 354.000000 354.000000"
 preserveAspectRatio="xMidYMid meet">
<metadata>
Created by potrace 1.14, written by Peter Selinger 2001-2017
</metadata>
<g transform="translate(0.000000,354.000000) scale(0.100000,-0.100000)"
fill="#000000" stroke="none">
<path d="M1252 3431 c-114 -43 -216 -152 -242 -262 -19 -77 -8 -228 23 -314
53 -153 147 -303 307 -493 112 -133 385 -420 393 -412 3 3 11 157 18 343 7
185 15 337 19 337 4 0 12 -152 19 -337 7 -186 15 -340 18 -343 8 -8 281 279
393 412 162 192 258 347 311 503 20 59 24 90 24 190 0 112 -2 124 -28 178 -37
74 -110 147 -184 184 -54 26 -67 28 -173 28 -109 0 -118 -2 -168 -30 -65 -36
-138 -113 -178 -189 -16 -31 -31 -56 -34 -56 -3 0 -18 25 -34 56 -40 76 -113
154 -178 189 -47 26 -64 30 -153 32 -80 3 -111 -1 -153 -16z"/>
<path d="M400 2540 c-113 -24 -224 -111 -277 -217 -26 -53 -28 -67 -28 -168 1
-92 4 -118 23 -158 28 -62 100 -132 186 -184 l69 -41 -58 -33 c-84 -47 -168
-129 -196 -191 -20 -45 -24 -69 -24 -158 0 -99 2 -110 33 -172 84 -172 259
-247 471 -204 222 45 440 188 786 513 88 83 173 164 188 181 l28 30 -143 6
c-79 4 -237 11 -351 16 -115 4 -211 10 -213 13 -2 2 148 10 333 17 186 7 344
16 351 20 9 4 -41 59 -152 167 -315 308 -529 462 -741 532 -99 32 -215 45
-285 31z"/>
<path d="M2969 2540 c-167 -26 -359 -130 -589 -319 -150 -123 -434 -403 -418
-411 7 -4 165 -13 351 -20 185 -7 335 -15 333 -17 -2 -3 -98 -9 -213 -13 -114
-5 -272 -12 -351 -16 l-143 -6 28 -30 c15 -17 100 -98 188 -181 346 -325 564
-468 786 -513 212 -43 387 32 471 204 31 62 33 74 33 167 0 75 -5 113 -19 150
-26 66 -104 147 -189 197 l-69 40 68 41 c87 52 158 123 186 184 29 67 36 204
14 275 -36 111 -127 207 -235 249 -60 23 -158 31 -232 19z"/>
<path d="M1547 1411 c-397 -416 -547 -668 -548 -922 0 -133 45 -232 142 -312
73 -59 139 -81 249 -81 83 -1 102 3 153 26 69 32 139 102 187 186 19 34 37 62
40 62 3 0 21 -28 40 -62 48 -84 118 -154 187 -186 51 -23 70 -27 153 -26 110
0 176 22 249 81 161 133 187 353 71 609 -52 116 -186 307 -325 464 -65 73
-337 351 -341 347 -1 -1 -8 -156 -15 -344 -7 -189 -16 -343 -21 -343 -4 0 -8
28 -8 63 0 117 -24 627 -29 626 -3 -1 -86 -85 -184 -188z"/>
</g>
</svg>
